<svg xmlns="http://www.w3.org/2000/svg" version="1.1" xmlns:xlink="http://www.w3.org/1999/xlink" xmlns:svgjs="http://svgjs.dev/svgjs" width="2000" height="1247" viewBox="0 0 2000 1247"><g transform="matrix(1,0,0,1,-1.2121212121212466,0.504858299595071)"><svg viewBox="0 0 396 247" data-background-color="#000000" preserveAspectRatio="xMidYMid meet" height="1247" width="2000" xmlns="http://www.w3.org/2000/svg" xmlns:xlink="http://www.w3.org/1999/xlink"><g id="tight-bounds" transform="matrix(1,0,0,1,0.2400000000000091,-0.09999999999999432)"><svg viewBox="0 0 395.52 247.2" height="247.2" width="395.52"><g><svg></svg></g><g><svg viewBox="0 0 395.52 247.2" height="247.2" width="395.52"><g transform="matrix(1,0,0,1,83.9316705882353,47.215199999999996)"><svg viewBox="0 0 227.65665882352937 152.7696" height="152.7696" width="227.65665882352937"><g><svg viewBox="0 0 227.65665882352937 152.7696" height="152.7696" width="227.65665882352937"><g><svg viewBox="0 0 227.65665882352937 152.7696" height="152.7696" width="227.65665882352937"><g><svg viewBox="0 0 227.65665882352937 152.7696" height="152.7696" width="227.65665882352937"><g id="textblocktransform"><svg viewBox="0 0 227.65665882352937 152.7696" height="152.7696" width="227.65665882352937" id="textblock"><g><svg viewBox="0 0 227.65665882352937 152.7696" height="152.7696" width="227.65665882352937"><g transform="matrix(1,0,0,1,0,0)"><svg width="227.65665882352937" viewBox="0.55 -35.1 53.2 35.7" height="152.7696" data-palette-color="#ffffff"><path d="M23.2-34.5L27.85-34.5 16.2-11.7 12.25-11.7 0.55-34.5 5.25-34.5 12.5-19.95Q12.95-19 13.33-18 13.7-17 14.05-16.05L14.05-16.05 14.4-16.05Q14.75-17 15.15-18 15.55-19 15.95-19.9L15.95-19.9 23.2-34.5ZM12-14.8L16.4-14.8 16.4 0 12 0 12-14.8ZM42.2-35.1L42.2-35.1Q44.65-35.05 47.25-34.85 49.85-34.65 52.45-34.1L52.45-34.1 52.15-30.9Q50-31 47.4-31.08 44.8-31.15 42.4-31.15L42.4-31.15Q40.55-31.15 39.22-31.03 37.9-30.9 37.05-30.43 36.2-29.95 35.82-28.88 35.45-27.8 35.45-25.9L35.45-25.9Q35.45-23.05 36.47-21.93 37.5-20.8 39.8-20.25L39.8-20.25 46.8-18.5Q50.8-17.55 52.27-15.18 53.75-12.8 53.75-8.8L53.75-8.8Q53.75-5.8 53.07-3.95 52.4-2.1 51-1.13 49.6-0.15 47.4 0.23 45.2 0.6 42.2 0.6L42.2 0.6Q40.5 0.6 37.77 0.45 35.05 0.3 31.5-0.35L31.5-0.35 31.8-3.6Q34.75-3.5 36.55-3.43 38.35-3.35 39.65-3.35 40.95-3.35 42.35-3.35L42.35-3.35Q45-3.35 46.52-3.75 48.05-4.15 48.67-5.35 49.3-6.55 49.3-8.9L49.3-8.9Q49.3-10.9 48.85-12 48.4-13.1 47.42-13.68 46.45-14.25 44.95-14.6L44.95-14.6 37.8-16.4Q34.05-17.35 32.52-19.7 31-22.05 31-26L31-26Q31-29 31.67-30.83 32.35-32.65 33.72-33.58 35.1-34.5 37.2-34.8 39.3-35.1 42.2-35.1Z" opacity="1" transform="matrix(1,0,0,1,0,0)" fill="#ffffff" class="wordmark-text-0" data-fill-palette-color="primary" id="text-0"></path></svg></g></svg></g></svg></g></svg></g></svg></g></svg></g></svg></g><path d="M129.287 41.215L129.287 0 376.487 0 376.487 247.2 129.287 247.2 129.287 205.985 143.064 205.985 143.064 233.423 362.71 233.423 362.71 13.777 143.064 13.777 143.064 41.215Z" fill="#ffffff" stroke="transparent" data-fill-palette-color="tertiary"></path></svg></g><defs></defs></svg><rect width="395.52" height="247.2" fill="none" stroke="none" visibility="hidden"></rect></g></svg></g></svg>